{"title":"Before.Midnight.2013.500MB.HDRip.CROPPED.x264.AAC-DiDee","uid":8682390,"size":526590613,"categoryP":"video","categoryS":"movies","magnet":"?xt=urn:btih:4f5952fe943d3a6a3f7feb9bae6cdd9871e3be74&amp;dn=Before.Midnight.2013.500MB.HDRip.CROPPED.x264.AAC-DiDee&amp;tr=udp%3A%2F%2Ftracker.openbittorrent.com%3A80&amp;tr=udp%3A%2F%2Fopen.demonii.com%3A1337&amp;tr=udp%3A%2F%2Ftracker.coppersurfer.tk%3A6969&amp;tr=udp%3A%2F%2Fexodus.desync.com%3A6969","seeders":2,"leechers":0,"uploader":"ValidusVyto","files":-1,"time":1373731636,"description":"_______ Visit us at our Semi Public Bittorrent Community ________\n  &lt;a href=&quot;\nhttp://p2pdl.com&quot; rel=&quot;nofollow&quot; target=&quot;_NEW&quot;&gt;\nhttp://p2pdl.com&lt;/a&gt;  _____________________________ &lt;a href=&quot; http://p2pdl.com&quot; rel=&quot;nofollow&quot; target=&quot;_NEW&quot;&gt; http://p2pdl.com&lt;/a&gt;\n\n\nBefore.Midnight.2013.500MB.HDRip.CROPPED.x264.AAC-DiDee\n\n\nWe meet Jesse and Celine nine years on in Greece. Almost two decades have passed since their\nfirst meeting on that train bound for Vienna\n\n &lt;a href=&quot;\nhttp://www.imdb.com/title/tt2209418&quot; rel=&quot;nofollow&quot; target=&quot;_NEW&quot;&gt;\nhttp://www.imdb.com/title/tt2209418&lt;/a&gt;\n\n\nFormat : MPEG-4\nFile size : 502 MiB\nDuration : 1h 48mn\nOverall bit rate mode : Variable\nOverall bit rate : 646 Kbps\n\nVideo\nFormat : AVC\nBit rate : 579 Kbps\nMaximum bit rate : 2 469 Kbps\nWidth : 608 pixels\nHeight : 256 pixels\nDisplay aspect ratio : 2.40:1\nFrame rate mode : Constant\nFrame rate : 29.970 fps\nStream size : 450 MiB (90%)\nWriting library : x264 core 133\n\nAudio\nFormat : AAC\nBit rate mode : Variable\nBit rate : 63.9 Kbps\nChannel(s) : 2 channels\nChannel positions : Front: L R\nSampling rate : 44.1 KHz / 22.05 KHz\nStream size : 49.7 MiB (10%)\n\n &lt;a href=&quot;\nhttp://ultraimg.com/images/Xp3NB.png&quot; rel=&quot;nofollow&quot; target=&quot;_NEW&quot;&gt;\nhttp://ultraimg.com/images/Xp3NB.png&lt;/a&gt; &lt;a href=&quot;\nhttp://ultraimg.com/images/IHT7t.png&quot; rel=&quot;nofollow&quot; target=&quot;_NEW&quot;&gt;\nhttp://ultraimg.com/images/IHT7t.png&lt;/a&gt; &lt;a href=&quot;\nhttp://ultraimg.com/images/YQeE.png&quot; rel=&quot;nofollow&quot; target=&quot;_NEW&quot;&gt;\nhttp://ultraimg.com/images/YQeE.png&lt;/a&gt; &lt;a href=&quot;\nhttp://ultraimg.com/images/qaBXD.png&quot; rel=&quot;nofollow&quot; target=&quot;_NEW&quot;&gt;\nhttp://ultraimg.com/images/qaBXD.png&lt;/a&gt; &lt;a href=&quot;\nhttp://ultraimg.com/images/ZVtv1.png&quot; rel=&quot;nofollow&quot; target=&quot;_NEW&quot;&gt;\nhttp://ultraimg.com/images/ZVtv1.png&lt;/a&gt; &lt;a href=&quot;\nhttp://ultraimg.com/images/CdfHo.png&quot; rel=&quot;nofollow&quot; target=&quot;_NEW&quot;&gt;\nhttp://ultraimg.com/images/CdfHo.png&lt;/a&gt; &lt;a href=&quot;\nhttp://ultraimg.com/images/EzI7r.png&quot; rel=&quot;nofollow&quot; target=&quot;_NEW&quot;&gt;\nhttp://ultraimg.com/images/EzI7r.png&lt;/a&gt; &lt;a href=&quot;\nhttp://ultraimg.com/images/eub3l.png&quot; rel=&quot;nofollow&quot; target=&quot;_NEW&quot;&gt;\nhttp://ultraimg.com/images/eub3l.png&lt;/a&gt;\n","torrent":{"xt":"urn:btih:4f5952fe943d3a6a3f7feb9bae6cdd9871e3be74","amp;dn":"Before.Midnight.2013.500MB.HDRip.CROPPED.x264.AAC-DiDee","amp;tr":["udp%3A%2F%2Ftracker.openbittorrent.com%3A80","udp%3A%2F%2Fopen.demonii.com%3A1337","udp%3A%2F%2Ftracker.coppersurfer.tk%3A6969","udp%3A%2F%2Fexodus.desync.com%3A6969"],"infoHash":"4f5952fe943d3a6a3f7feb9bae6cdd9871e3be74","infoHashBuffer":{"type":"Buffer","data":[79,89,82,254,148,61,58,106,63,127,235,155,174,108,221,152,113,227,190,116]},"announce":[],"urlList":[]}}